<mxfile host="app.diagrams.net" modified="2024-02-23T13:21:08.327Z" agent="Mozilla/5.0 (X11; Linux x86_64) AppleWebKit/537.36 (KHTML, like Gecko) Chrome/112.0.0.0 Safari/537.36" etag="-hUqsc5hcXW8qw_jWHgH" version="23.1.6" type="github" pages="2">
  <diagram name="CU simple" id="mCmbSoC8vtWFZBo_XUnz">
    <mxGraphModel dx="1434" dy="785" grid="1" gridSize="10" guides="1" tooltips="1" connect="1" arrows="1" fold="1" page="1" pageScale="1" pageWidth="827" pageHeight="1169" math="0" shadow="0">
      <root>
        <mxCell id="0" />
        <mxCell id="1" parent="0" />
        <mxCell id="MQXjX91H7tXNH3LMRPvd-1" value="" style="rounded=0;whiteSpace=wrap;html=1;fillColor=none;movable=0;resizable=0;rotatable=0;deletable=0;editable=0;locked=1;connectable=0;" parent="1" vertex="1">
          <mxGeometry x="204" y="45" width="420" height="740" as="geometry" />
        </mxCell>
        <mxCell id="MQXjX91H7tXNH3LMRPvd-26" value="Pompier" style="shape=umlActor;verticalLabelPosition=bottom;verticalAlign=top;html=1;outlineConnect=0;" parent="1" vertex="1">
          <mxGeometry x="110" y="190" width="50" height="100" as="geometry" />
        </mxCell>
        <mxCell id="MQXjX91H7tXNH3LMRPvd-27" style="edgeStyle=orthogonalEdgeStyle;rounded=0;orthogonalLoop=1;jettySize=auto;html=1;endArrow=block;endFill=0;jumpSize=10;strokeWidth=2;targetPerimeterSpacing=0;endSize=18;" parent="1" edge="1">
          <mxGeometry relative="1" as="geometry">
            <mxPoint x="135" y="330" as="targetPoint" />
            <mxPoint x="135" y="470" as="sourcePoint" />
          </mxGeometry>
        </mxCell>
        <mxCell id="MQXjX91H7tXNH3LMRPvd-28" value="Administrateur" style="shape=umlActor;verticalLabelPosition=bottom;verticalAlign=top;html=1;outlineConnect=0;" parent="1" vertex="1">
          <mxGeometry x="110" y="495" width="50" height="100" as="geometry" />
        </mxCell>
        <mxCell id="MQXjX91H7tXNH3LMRPvd-29" value="Se connecter" style="ellipse;whiteSpace=wrap;html=1;" parent="1" vertex="1">
          <mxGeometry x="364" y="110" width="120" height="50" as="geometry" />
        </mxCell>
        <mxCell id="MQXjX91H7tXNH3LMRPvd-30" value="FireFile" style="text;html=1;strokeColor=none;fillColor=none;align=center;verticalAlign=middle;whiteSpace=wrap;rounded=0;" parent="1" vertex="1">
          <mxGeometry x="374" y="55" width="100" height="30" as="geometry" />
        </mxCell>
        <mxCell id="MQXjX91H7tXNH3LMRPvd-31" value="Serveur BD" style="shape=umlActor;verticalLabelPosition=bottom;verticalAlign=top;html=1;outlineConnect=0;" parent="1" vertex="1">
          <mxGeometry x="760" y="330" width="50" height="100" as="geometry" />
        </mxCell>
        <mxCell id="MQXjX91H7tXNH3LMRPvd-32" value="" style="endArrow=none;html=1;rounded=0;exitX=1;exitY=0.5;exitDx=0;exitDy=0;" parent="1" source="MQXjX91H7tXNH3LMRPvd-29" target="MQXjX91H7tXNH3LMRPvd-31" edge="1">
          <mxGeometry width="50" height="50" relative="1" as="geometry">
            <mxPoint x="483.7600000000002" y="127.65000000000003" as="sourcePoint" />
            <mxPoint x="740" y="380" as="targetPoint" />
          </mxGeometry>
        </mxCell>
        <mxCell id="MQXjX91H7tXNH3LMRPvd-33" value="Consulter documents" style="ellipse;whiteSpace=wrap;html=1;" parent="1" vertex="1">
          <mxGeometry x="364" y="230" width="120" height="50" as="geometry" />
        </mxCell>
        <mxCell id="MQXjX91H7tXNH3LMRPvd-34" value="" style="endArrow=none;html=1;rounded=0;entryX=0;entryY=0.5;entryDx=0;entryDy=0;" parent="1" target="MQXjX91H7tXNH3LMRPvd-29" edge="1">
          <mxGeometry width="50" height="50" relative="1" as="geometry">
            <mxPoint x="180" y="247" as="sourcePoint" />
            <mxPoint x="364.00000000000034" y="142" as="targetPoint" />
          </mxGeometry>
        </mxCell>
        <mxCell id="MQXjX91H7tXNH3LMRPvd-35" value="" style="endArrow=none;html=1;rounded=0;entryX=0;entryY=0.5;entryDx=0;entryDy=0;" parent="1" target="MQXjX91H7tXNH3LMRPvd-33" edge="1">
          <mxGeometry width="50" height="50" relative="1" as="geometry">
            <mxPoint x="180" y="253" as="sourcePoint" />
            <mxPoint x="364.00000000000034" y="258" as="targetPoint" />
          </mxGeometry>
        </mxCell>
        <mxCell id="MQXjX91H7tXNH3LMRPvd-36" value="" style="endArrow=none;html=1;rounded=0;exitX=1;exitY=0.5;exitDx=0;exitDy=0;" parent="1" source="MQXjX91H7tXNH3LMRPvd-33" target="MQXjX91H7tXNH3LMRPvd-31" edge="1">
          <mxGeometry width="50" height="50" relative="1" as="geometry">
            <mxPoint x="484.00000000000205" y="257" as="sourcePoint" />
            <mxPoint x="740" y="390" as="targetPoint" />
          </mxGeometry>
        </mxCell>
        <mxCell id="MQXjX91H7tXNH3LMRPvd-37" value="&lt;font style=&quot;font-size: 18px;&quot;&gt;Appli pompiers simple &lt;/font&gt;" style="text;html=1;align=center;verticalAlign=middle;resizable=0;points=[];autosize=1;strokeColor=none;fillColor=none;" parent="1" vertex="1">
          <mxGeometry x="330" y="15" width="200" height="40" as="geometry" />
        </mxCell>
        <mxCell id="MQXjX91H7tXNH3LMRPvd-38" style="rounded=0;orthogonalLoop=1;jettySize=auto;html=1;endArrow=none;endFill=0;exitX=1;exitY=0.5;exitDx=0;exitDy=0;" parent="1" source="MQXjX91H7tXNH3LMRPvd-39" target="MQXjX91H7tXNH3LMRPvd-31" edge="1">
          <mxGeometry relative="1" as="geometry">
            <mxPoint x="730" y="430" as="targetPoint" />
          </mxGeometry>
        </mxCell>
        <mxCell id="MQXjX91H7tXNH3LMRPvd-39" value="Gérer documents" style="ellipse;whiteSpace=wrap;html=1;" parent="1" vertex="1">
          <mxGeometry x="364" y="457.5" width="120" height="50" as="geometry" />
        </mxCell>
        <mxCell id="MQXjX91H7tXNH3LMRPvd-40" value="Se déconnecter" style="ellipse;whiteSpace=wrap;html=1;" parent="1" vertex="1">
          <mxGeometry x="364" y="170" width="120" height="50" as="geometry" />
        </mxCell>
        <mxCell id="MQXjX91H7tXNH3LMRPvd-41" value="" style="endArrow=none;html=1;rounded=0;entryX=0;entryY=0.5;entryDx=0;entryDy=0;" parent="1" target="MQXjX91H7tXNH3LMRPvd-40" edge="1">
          <mxGeometry width="50" height="50" relative="1" as="geometry">
            <mxPoint x="180" y="250" as="sourcePoint" />
            <mxPoint x="374" y="145" as="targetPoint" />
          </mxGeometry>
        </mxCell>
        <mxCell id="MQXjX91H7tXNH3LMRPvd-42" style="rounded=0;orthogonalLoop=1;jettySize=auto;html=1;exitX=1;exitY=0.5;exitDx=0;exitDy=0;endArrow=none;endFill=0;" parent="1" source="MQXjX91H7tXNH3LMRPvd-43" target="MQXjX91H7tXNH3LMRPvd-31" edge="1">
          <mxGeometry relative="1" as="geometry">
            <mxPoint x="730" y="440" as="targetPoint" />
            <mxPoint x="484" y="617.5" as="sourcePoint" />
          </mxGeometry>
        </mxCell>
        <mxCell id="MQXjX91H7tXNH3LMRPvd-43" value="Gérer comptes" style="ellipse;whiteSpace=wrap;html=1;" parent="1" vertex="1">
          <mxGeometry x="364" y="582.5" width="120" height="50" as="geometry" />
        </mxCell>
        <mxCell id="MQXjX91H7tXNH3LMRPvd-44" value="" style="endArrow=none;html=1;rounded=0;entryX=0;entryY=0.5;entryDx=0;entryDy=0;" parent="1" source="MQXjX91H7tXNH3LMRPvd-28" target="MQXjX91H7tXNH3LMRPvd-39" edge="1">
          <mxGeometry width="50" height="50" relative="1" as="geometry">
            <mxPoint x="180" y="545" as="sourcePoint" />
            <mxPoint x="363.99999999999943" y="487.5" as="targetPoint" />
          </mxGeometry>
        </mxCell>
        <mxCell id="MQXjX91H7tXNH3LMRPvd-45" value="" style="endArrow=none;html=1;rounded=0;entryX=0;entryY=0.5;entryDx=0;entryDy=0;" parent="1" source="MQXjX91H7tXNH3LMRPvd-28" target="MQXjX91H7tXNH3LMRPvd-43" edge="1">
          <mxGeometry width="50" height="50" relative="1" as="geometry">
            <mxPoint x="180" y="550" as="sourcePoint" />
            <mxPoint x="384" y="275" as="targetPoint" />
          </mxGeometry>
        </mxCell>
        <mxCell id="MQXjX91H7tXNH3LMRPvd-46" value="Gérer Tags" style="ellipse;whiteSpace=wrap;html=1;" parent="1" vertex="1">
          <mxGeometry x="364" y="520" width="120" height="50" as="geometry" />
        </mxCell>
        <mxCell id="MQXjX91H7tXNH3LMRPvd-47" value="" style="endArrow=none;html=1;rounded=0;" parent="1" source="MQXjX91H7tXNH3LMRPvd-28" target="MQXjX91H7tXNH3LMRPvd-46" edge="1">
          <mxGeometry width="50" height="50" relative="1" as="geometry">
            <mxPoint x="190" y="555" as="sourcePoint" />
            <mxPoint x="374" y="493" as="targetPoint" />
          </mxGeometry>
        </mxCell>
        <mxCell id="MQXjX91H7tXNH3LMRPvd-48" value="" style="endArrow=none;html=1;rounded=0;" parent="1" source="MQXjX91H7tXNH3LMRPvd-31" target="MQXjX91H7tXNH3LMRPvd-46" edge="1">
          <mxGeometry width="50" height="50" relative="1" as="geometry">
            <mxPoint x="170" y="555" as="sourcePoint" />
            <mxPoint x="374" y="555" as="targetPoint" />
          </mxGeometry>
        </mxCell>
      </root>
    </mxGraphModel>
  </diagram>
  <diagram id="eHFG686vaj9EIRjy9gkB" name="CU complexe">
    <mxGraphModel dx="1434" dy="785" grid="1" gridSize="10" guides="1" tooltips="1" connect="1" arrows="1" fold="1" page="1" pageScale="1" pageWidth="827" pageHeight="1169" math="0" shadow="0">
      <root>
        <mxCell id="0" />
        <mxCell id="1" parent="0" />
        <mxCell id="Z_94XWlNVCfBKGCbZTvs-1" value="Pompier" style="shape=umlActor;verticalLabelPosition=bottom;verticalAlign=top;html=1;outlineConnect=0;" parent="1" vertex="1">
          <mxGeometry x="100" y="180" width="50" height="100" as="geometry" />
        </mxCell>
        <mxCell id="Z_94XWlNVCfBKGCbZTvs-2" style="edgeStyle=orthogonalEdgeStyle;rounded=0;orthogonalLoop=1;jettySize=auto;html=1;endArrow=block;endFill=0;jumpSize=10;strokeWidth=2;targetPerimeterSpacing=0;endSize=18;" parent="1" edge="1">
          <mxGeometry relative="1" as="geometry">
            <mxPoint x="125" y="320" as="targetPoint" />
            <mxPoint x="125" y="460" as="sourcePoint" />
          </mxGeometry>
        </mxCell>
        <mxCell id="Z_94XWlNVCfBKGCbZTvs-3" value="Administrateur" style="shape=umlActor;verticalLabelPosition=bottom;verticalAlign=top;html=1;outlineConnect=0;" parent="1" vertex="1">
          <mxGeometry x="100" y="485" width="50" height="100" as="geometry" />
        </mxCell>
        <mxCell id="Z_94XWlNVCfBKGCbZTvs-4" value="" style="rounded=0;whiteSpace=wrap;html=1;fillColor=none;movable=0;resizable=0;rotatable=0;deletable=0;editable=0;locked=1;connectable=0;" parent="1" vertex="1">
          <mxGeometry x="204" y="10" width="420" height="900" as="geometry" />
        </mxCell>
        <mxCell id="Z_94XWlNVCfBKGCbZTvs-5" value="" style="endArrow=none;html=1;rounded=0;entryX=0;entryY=0.5;entryDx=0;entryDy=0;" parent="1" source="Z_94XWlNVCfBKGCbZTvs-1" target="Z_94XWlNVCfBKGCbZTvs-12" edge="1">
          <mxGeometry width="50" height="50" relative="1" as="geometry">
            <mxPoint x="178" y="235" as="sourcePoint" />
            <mxPoint x="364" y="135" as="targetPoint" />
          </mxGeometry>
        </mxCell>
        <mxCell id="Z_94XWlNVCfBKGCbZTvs-6" value="" style="endArrow=none;html=1;rounded=0;exitX=1;exitY=0.5;exitDx=0;exitDy=0;" parent="1" source="Z_94XWlNVCfBKGCbZTvs-12" target="Z_94XWlNVCfBKGCbZTvs-10" edge="1">
          <mxGeometry width="50" height="50" relative="1" as="geometry">
            <mxPoint x="490" y="250" as="sourcePoint" />
            <mxPoint x="720" y="430" as="targetPoint" />
          </mxGeometry>
        </mxCell>
        <mxCell id="Z_94XWlNVCfBKGCbZTvs-7" value="Se connecter" style="ellipse;whiteSpace=wrap;html=1;" parent="1" vertex="1">
          <mxGeometry x="360" y="40" width="120" height="50" as="geometry" />
        </mxCell>
        <mxCell id="Z_94XWlNVCfBKGCbZTvs-8" value="Gérer document" style="ellipse;whiteSpace=wrap;html=1;" parent="1" vertex="1">
          <mxGeometry x="354" y="385" width="120" height="50" as="geometry" />
        </mxCell>
        <mxCell id="Z_94XWlNVCfBKGCbZTvs-9" value="FireFile" style="text;html=1;strokeColor=none;fillColor=none;align=center;verticalAlign=middle;whiteSpace=wrap;rounded=0;" parent="1" vertex="1">
          <mxGeometry x="364" y="10" width="100" height="30" as="geometry" />
        </mxCell>
        <mxCell id="Z_94XWlNVCfBKGCbZTvs-10" value="Serveur BD" style="shape=umlActor;verticalLabelPosition=bottom;verticalAlign=top;html=1;outlineConnect=0;" parent="1" vertex="1">
          <mxGeometry x="740" y="385" width="50" height="100" as="geometry" />
        </mxCell>
        <mxCell id="Z_94XWlNVCfBKGCbZTvs-11" value="" style="endArrow=none;html=1;rounded=0;exitX=0.998;exitY=0.393;exitDx=0;exitDy=0;exitPerimeter=0;" parent="1" source="Z_94XWlNVCfBKGCbZTvs-7" target="Z_94XWlNVCfBKGCbZTvs-10" edge="1">
          <mxGeometry width="50" height="50" relative="1" as="geometry">
            <mxPoint x="690" y="210" as="sourcePoint" />
            <mxPoint x="720" y="420" as="targetPoint" />
          </mxGeometry>
        </mxCell>
        <mxCell id="Z_94XWlNVCfBKGCbZTvs-12" value="Consulter documents" style="ellipse;whiteSpace=wrap;html=1;" parent="1" vertex="1">
          <mxGeometry x="360" y="160" width="120" height="50" as="geometry" />
        </mxCell>
        <mxCell id="Z_94XWlNVCfBKGCbZTvs-13" value="" style="endArrow=none;html=1;rounded=0;entryX=0;entryY=0.5;entryDx=0;entryDy=0;" parent="1" source="Z_94XWlNVCfBKGCbZTvs-1" target="Z_94XWlNVCfBKGCbZTvs-7" edge="1">
          <mxGeometry width="50" height="50" relative="1" as="geometry">
            <mxPoint x="168" y="225" as="sourcePoint" />
            <mxPoint x="414" y="220" as="targetPoint" />
          </mxGeometry>
        </mxCell>
        <mxCell id="Z_94XWlNVCfBKGCbZTvs-14" value="Ajouter documents" style="ellipse;whiteSpace=wrap;html=1;" parent="1" vertex="1">
          <mxGeometry x="354" y="470" width="120" height="50" as="geometry" />
        </mxCell>
        <mxCell id="Z_94XWlNVCfBKGCbZTvs-15" value="Supprimer documents" style="ellipse;whiteSpace=wrap;html=1;" parent="1" vertex="1">
          <mxGeometry x="470" y="440" width="120" height="50" as="geometry" />
        </mxCell>
        <mxCell id="Z_94XWlNVCfBKGCbZTvs-16" value="Gérer comptes" style="ellipse;whiteSpace=wrap;html=1;" parent="1" vertex="1">
          <mxGeometry x="350" y="590" width="120" height="50" as="geometry" />
        </mxCell>
        <mxCell id="Z_94XWlNVCfBKGCbZTvs-17" value="Ajouter compte" style="ellipse;whiteSpace=wrap;html=1;" parent="1" vertex="1">
          <mxGeometry x="280" y="660" width="96" height="50" as="geometry" />
        </mxCell>
        <mxCell id="Z_94XWlNVCfBKGCbZTvs-18" value="Modifier un compte" style="ellipse;whiteSpace=wrap;html=1;" parent="1" vertex="1">
          <mxGeometry x="414" y="660" width="120" height="50" as="geometry" />
        </mxCell>
        <mxCell id="Z_94XWlNVCfBKGCbZTvs-19" value="Suppression compte" style="ellipse;whiteSpace=wrap;html=1;" parent="1" vertex="1">
          <mxGeometry x="504" y="580" width="100" height="50" as="geometry" />
        </mxCell>
        <mxCell id="Z_94XWlNVCfBKGCbZTvs-20" value="Utiliser la barre de recherche" style="ellipse;whiteSpace=wrap;html=1;" parent="1" vertex="1">
          <mxGeometry x="230" y="247.48" width="120" height="50" as="geometry" />
        </mxCell>
        <mxCell id="Z_94XWlNVCfBKGCbZTvs-21" value="Mettre à jour document" style="ellipse;whiteSpace=wrap;html=1;" parent="1" vertex="1">
          <mxGeometry x="229" y="470" width="120" height="50" as="geometry" />
        </mxCell>
        <mxCell id="Z_94XWlNVCfBKGCbZTvs-22" value="" style="endArrow=none;dashed=1;html=1;dashPattern=1 3;strokeWidth=2;rounded=0;exitX=0.717;exitY=0.08;exitDx=0;exitDy=0;exitPerimeter=0;startArrow=classic;startFill=1;" parent="1" source="Z_94XWlNVCfBKGCbZTvs-20" target="Z_94XWlNVCfBKGCbZTvs-12" edge="1">
          <mxGeometry width="50" height="50" relative="1" as="geometry">
            <mxPoint x="390" y="407.48" as="sourcePoint" />
            <mxPoint x="377.2083934267762" y="170.0041817395108" as="targetPoint" />
          </mxGeometry>
        </mxCell>
        <mxCell id="Z_94XWlNVCfBKGCbZTvs-23" value="" style="endArrow=none;html=1;rounded=0;entryX=0;entryY=0.5;entryDx=0;entryDy=0;" parent="1" source="Z_94XWlNVCfBKGCbZTvs-3" target="Z_94XWlNVCfBKGCbZTvs-8" edge="1">
          <mxGeometry width="50" height="50" relative="1" as="geometry">
            <mxPoint x="160" y="494.5" as="sourcePoint" />
            <mxPoint x="342" y="494.5" as="targetPoint" />
          </mxGeometry>
        </mxCell>
        <mxCell id="Z_94XWlNVCfBKGCbZTvs-24" value="" style="endArrow=none;html=1;rounded=0;" parent="1" source="Z_94XWlNVCfBKGCbZTvs-3" target="Z_94XWlNVCfBKGCbZTvs-16" edge="1">
          <mxGeometry width="50" height="50" relative="1" as="geometry">
            <mxPoint x="159" y="510" as="sourcePoint" />
            <mxPoint x="354" y="444.5" as="targetPoint" />
          </mxGeometry>
        </mxCell>
        <mxCell id="Z_94XWlNVCfBKGCbZTvs-25" value="&amp;lt;&amp;lt;extend&amp;gt;&amp;gt;" style="text;html=1;strokeColor=none;fillColor=none;align=center;verticalAlign=middle;whiteSpace=wrap;rounded=0;" parent="1" vertex="1">
          <mxGeometry x="280" y="210" width="60" height="30" as="geometry" />
        </mxCell>
        <mxCell id="Z_94XWlNVCfBKGCbZTvs-26" value="" style="endArrow=block;endSize=11;endFill=0;html=1;rounded=0;" parent="1" source="Z_94XWlNVCfBKGCbZTvs-19" target="Z_94XWlNVCfBKGCbZTvs-16" edge="1">
          <mxGeometry width="160" relative="1" as="geometry">
            <mxPoint x="550" y="560" as="sourcePoint" />
            <mxPoint x="580" y="530" as="targetPoint" />
          </mxGeometry>
        </mxCell>
        <mxCell id="Z_94XWlNVCfBKGCbZTvs-27" value="" style="endArrow=block;endSize=11;endFill=0;html=1;rounded=0;" parent="1" source="Z_94XWlNVCfBKGCbZTvs-17" target="Z_94XWlNVCfBKGCbZTvs-16" edge="1">
          <mxGeometry width="160" relative="1" as="geometry">
            <mxPoint x="324" y="690" as="sourcePoint" />
            <mxPoint x="354" y="660" as="targetPoint" />
          </mxGeometry>
        </mxCell>
        <mxCell id="Z_94XWlNVCfBKGCbZTvs-28" value="" style="endArrow=block;endSize=11;endFill=0;html=1;rounded=0;" parent="1" source="Z_94XWlNVCfBKGCbZTvs-15" target="Z_94XWlNVCfBKGCbZTvs-8" edge="1">
          <mxGeometry width="160" relative="1" as="geometry">
            <mxPoint x="520" y="637" as="sourcePoint" />
            <mxPoint x="520" y="532" as="targetPoint" />
          </mxGeometry>
        </mxCell>
        <mxCell id="Z_94XWlNVCfBKGCbZTvs-29" value="" style="endArrow=block;endSize=11;endFill=0;html=1;rounded=0;" parent="1" source="Z_94XWlNVCfBKGCbZTvs-18" target="Z_94XWlNVCfBKGCbZTvs-16" edge="1">
          <mxGeometry width="160" relative="1" as="geometry">
            <mxPoint x="522" y="716" as="sourcePoint" />
            <mxPoint x="462" y="684" as="targetPoint" />
          </mxGeometry>
        </mxCell>
        <mxCell id="Z_94XWlNVCfBKGCbZTvs-30" value="" style="endArrow=block;endSize=11;endFill=0;html=1;rounded=0;" parent="1" source="Z_94XWlNVCfBKGCbZTvs-21" target="Z_94XWlNVCfBKGCbZTvs-8" edge="1">
          <mxGeometry width="160" relative="1" as="geometry">
            <mxPoint x="549.5" y="600" as="sourcePoint" />
            <mxPoint x="549.5" y="540" as="targetPoint" />
          </mxGeometry>
        </mxCell>
        <mxCell id="Z_94XWlNVCfBKGCbZTvs-31" value="" style="endArrow=block;endSize=11;endFill=0;html=1;rounded=0;" parent="1" source="Z_94XWlNVCfBKGCbZTvs-14" target="Z_94XWlNVCfBKGCbZTvs-8" edge="1">
          <mxGeometry width="160" relative="1" as="geometry">
            <mxPoint x="424" y="750" as="sourcePoint" />
            <mxPoint x="424" y="690" as="targetPoint" />
          </mxGeometry>
        </mxCell>
        <mxCell id="Z_94XWlNVCfBKGCbZTvs-32" value="" style="endArrow=none;html=1;rounded=0;" parent="1" source="Z_94XWlNVCfBKGCbZTvs-8" target="Z_94XWlNVCfBKGCbZTvs-10" edge="1">
          <mxGeometry width="50" height="50" relative="1" as="geometry">
            <mxPoint x="474" y="435" as="sourcePoint" />
            <mxPoint x="720" y="435" as="targetPoint" />
          </mxGeometry>
        </mxCell>
        <mxCell id="Z_94XWlNVCfBKGCbZTvs-33" value="" style="endArrow=none;html=1;rounded=0;" parent="1" source="Z_94XWlNVCfBKGCbZTvs-16" target="Z_94XWlNVCfBKGCbZTvs-10" edge="1">
          <mxGeometry width="50" height="50" relative="1" as="geometry">
            <mxPoint x="474" y="655" as="sourcePoint" />
            <mxPoint x="720" y="440" as="targetPoint" />
          </mxGeometry>
        </mxCell>
        <mxCell id="Z_94XWlNVCfBKGCbZTvs-37" value="Gérer les tags de recherche" style="ellipse;whiteSpace=wrap;html=1;" parent="1" vertex="1">
          <mxGeometry x="360" y="257.48" width="120" height="50" as="geometry" />
        </mxCell>
        <mxCell id="Z_94XWlNVCfBKGCbZTvs-38" value="" style="endArrow=none;dashed=1;html=1;dashPattern=1 3;strokeWidth=2;rounded=0;startArrow=classic;startFill=1;" parent="1" source="Z_94XWlNVCfBKGCbZTvs-37" target="Z_94XWlNVCfBKGCbZTvs-12" edge="1">
          <mxGeometry width="50" height="50" relative="1" as="geometry">
            <mxPoint x="560" y="440" as="sourcePoint" />
            <mxPoint x="547" y="253" as="targetPoint" />
          </mxGeometry>
        </mxCell>
        <mxCell id="Z_94XWlNVCfBKGCbZTvs-39" value="&amp;lt;&amp;lt;extend&amp;gt;&amp;gt;" style="text;html=1;strokeColor=none;fillColor=none;align=center;verticalAlign=middle;whiteSpace=wrap;rounded=0;" parent="1" vertex="1">
          <mxGeometry x="440" y="215" width="60" height="30" as="geometry" />
        </mxCell>
        <mxCell id="Z_94XWlNVCfBKGCbZTvs-40" value="Ajouter un tag à la recherche" style="ellipse;whiteSpace=wrap;html=1;" parent="1" vertex="1">
          <mxGeometry x="280" y="327.48" width="120" height="50" as="geometry" />
        </mxCell>
        <mxCell id="Z_94XWlNVCfBKGCbZTvs-41" value="" style="endArrow=none;dashed=1;html=1;dashPattern=1 3;strokeWidth=2;rounded=0;startArrow=classic;startFill=1;" parent="1" source="Z_94XWlNVCfBKGCbZTvs-40" target="Z_94XWlNVCfBKGCbZTvs-37" edge="1">
          <mxGeometry width="50" height="50" relative="1" as="geometry">
            <mxPoint x="460" y="487.48" as="sourcePoint" />
            <mxPoint x="320" y="307.48" as="targetPoint" />
          </mxGeometry>
        </mxCell>
        <mxCell id="Z_94XWlNVCfBKGCbZTvs-42" value="&amp;lt;&amp;lt;extend&amp;gt;&amp;gt;" style="text;html=1;strokeColor=none;fillColor=none;align=center;verticalAlign=middle;whiteSpace=wrap;rounded=0;" parent="1" vertex="1">
          <mxGeometry x="304" y="297.48" width="60" height="30" as="geometry" />
        </mxCell>
        <mxCell id="Z_94XWlNVCfBKGCbZTvs-43" value="Supprimer un tag de la recherche" style="ellipse;whiteSpace=wrap;html=1;" parent="1" vertex="1">
          <mxGeometry x="430" y="327.48" width="120" height="50" as="geometry" />
        </mxCell>
        <mxCell id="Z_94XWlNVCfBKGCbZTvs-44" value="" style="endArrow=none;dashed=1;html=1;dashPattern=1 3;strokeWidth=2;rounded=0;startArrow=classic;startFill=1;" parent="1" source="Z_94XWlNVCfBKGCbZTvs-43" target="Z_94XWlNVCfBKGCbZTvs-37" edge="1">
          <mxGeometry width="50" height="50" relative="1" as="geometry">
            <mxPoint x="630" y="477.48" as="sourcePoint" />
            <mxPoint x="562" y="294.48" as="targetPoint" />
          </mxGeometry>
        </mxCell>
        <mxCell id="Z_94XWlNVCfBKGCbZTvs-45" value="&amp;lt;&amp;lt;extend&amp;gt;&amp;gt;" style="text;html=1;strokeColor=none;fillColor=none;align=center;verticalAlign=middle;whiteSpace=wrap;rounded=0;" parent="1" vertex="1">
          <mxGeometry x="464" y="297.48" width="60" height="30" as="geometry" />
        </mxCell>
        <mxCell id="Z_94XWlNVCfBKGCbZTvs-46" value="Gérer Tags" style="ellipse;whiteSpace=wrap;html=1;" parent="1" vertex="1">
          <mxGeometry x="358" y="840" width="120" height="50" as="geometry" />
        </mxCell>
        <mxCell id="Z_94XWlNVCfBKGCbZTvs-47" value="Ajouter tag" style="ellipse;whiteSpace=wrap;html=1;" parent="1" vertex="1">
          <mxGeometry x="220" y="780" width="120" height="50" as="geometry" />
        </mxCell>
        <mxCell id="Z_94XWlNVCfBKGCbZTvs-48" value="Modifier un tag" style="ellipse;whiteSpace=wrap;html=1;" parent="1" vertex="1">
          <mxGeometry x="358" y="750" width="120" height="50" as="geometry" />
        </mxCell>
        <mxCell id="Z_94XWlNVCfBKGCbZTvs-49" value="Suppression tag" style="ellipse;whiteSpace=wrap;html=1;" parent="1" vertex="1">
          <mxGeometry x="494" y="780" width="120" height="50" as="geometry" />
        </mxCell>
        <mxCell id="Z_94XWlNVCfBKGCbZTvs-50" value="" style="endArrow=block;endSize=11;endFill=0;html=1;rounded=0;" parent="1" source="Z_94XWlNVCfBKGCbZTvs-49" target="Z_94XWlNVCfBKGCbZTvs-46" edge="1">
          <mxGeometry width="160" relative="1" as="geometry">
            <mxPoint x="554" y="770" as="sourcePoint" />
            <mxPoint x="584" y="740" as="targetPoint" />
          </mxGeometry>
        </mxCell>
        <mxCell id="Z_94XWlNVCfBKGCbZTvs-51" value="" style="endArrow=block;endSize=11;endFill=0;html=1;rounded=0;" parent="1" source="Z_94XWlNVCfBKGCbZTvs-47" target="Z_94XWlNVCfBKGCbZTvs-46" edge="1">
          <mxGeometry width="160" relative="1" as="geometry">
            <mxPoint x="328" y="900" as="sourcePoint" />
            <mxPoint x="358" y="870" as="targetPoint" />
          </mxGeometry>
        </mxCell>
        <mxCell id="Z_94XWlNVCfBKGCbZTvs-52" value="" style="endArrow=block;endSize=11;endFill=0;html=1;rounded=0;" parent="1" source="Z_94XWlNVCfBKGCbZTvs-48" target="Z_94XWlNVCfBKGCbZTvs-46" edge="1">
          <mxGeometry width="160" relative="1" as="geometry">
            <mxPoint x="526" y="926" as="sourcePoint" />
            <mxPoint x="466" y="894" as="targetPoint" />
          </mxGeometry>
        </mxCell>
        <mxCell id="Z_94XWlNVCfBKGCbZTvs-53" value="" style="endArrow=none;html=1;rounded=0;" parent="1" source="Z_94XWlNVCfBKGCbZTvs-3" target="Z_94XWlNVCfBKGCbZTvs-46" edge="1">
          <mxGeometry width="50" height="50" relative="1" as="geometry">
            <mxPoint y="680" as="sourcePoint" />
            <mxPoint x="222" y="772" as="targetPoint" />
          </mxGeometry>
        </mxCell>
        <mxCell id="Z_94XWlNVCfBKGCbZTvs-54" value="" style="endArrow=none;html=1;rounded=0;" parent="1" source="Z_94XWlNVCfBKGCbZTvs-46" target="Z_94XWlNVCfBKGCbZTvs-10" edge="1">
          <mxGeometry width="50" height="50" relative="1" as="geometry">
            <mxPoint x="457" y="615" as="sourcePoint" />
            <mxPoint x="750" y="458" as="targetPoint" />
          </mxGeometry>
        </mxCell>
        <mxCell id="Z_94XWlNVCfBKGCbZTvs-55" value="Se déconnecter" style="ellipse;whiteSpace=wrap;html=1;" parent="1" vertex="1">
          <mxGeometry x="360" y="100" width="120" height="50" as="geometry" />
        </mxCell>
        <mxCell id="Z_94XWlNVCfBKGCbZTvs-56" value="" style="endArrow=none;html=1;rounded=0;" parent="1" source="Z_94XWlNVCfBKGCbZTvs-1" target="Z_94XWlNVCfBKGCbZTvs-55" edge="1">
          <mxGeometry width="50" height="50" relative="1" as="geometry">
            <mxPoint x="160" y="222" as="sourcePoint" />
            <mxPoint x="360" y="75" as="targetPoint" />
          </mxGeometry>
        </mxCell>
      </root>
    </mxGraphModel>
  </diagram>
</mxfile>
